<svg width="29" height="29" fill="none" xmlns="http://www.w3.org/2000/svg"><path d="M15.875 20h2.063a.688.688 0 010 1.375h-5.5a.688.688 0 010-1.375H14.5v-6.875h-2.063a.688.688 0 010-1.375h2.75c.38 0 .688.308.688.688V20zM14.5 28.25C6.906 28.25.75 22.094.75 14.5S6.906.75 14.5.75 28.25 6.906 28.25 14.5 22.094 28.25 14.5 28.25zm0-1.375c6.835 0 12.375-5.54 12.375-12.375S21.335 2.125 14.5 2.125 2.125 7.665 2.125 14.5 7.665 26.875 14.5 26.875zm-.688-19.25h1.376c.38 0 .687.308.687.688v1.374c0 .38-.308.688-.688.688h-1.374a.688.688 0 01-.688-.688V8.313c0-.38.308-.688.688-.688z" fill="#3C2C26"/></svg>